<svg xmlns="http://www.w3.org/2000/svg" width="25" height="25" viewBox="0 0 25 25"><path d="M-10.424 2.259l-3.332-2.245-11.292 16.493v3.647l3.329-1.401zM-25.048 21.418h23.43v3.568h-23.43zM-46.592 0c-6.892 0-12.5 5.607-12.5 12.501s5.608 12.499 12.5 12.499c6.893 0 12.5-5.605 12.5-12.499s-5.607-12.501-12.5-12.501zm0 21.731c-5.089 0-9.231-4.141-9.231-9.23 0-5.091 4.142-9.231 9.231-9.231 5.09 0 9.231 4.141 9.231 9.231.001 5.09-4.141 9.23-9.231 9.23zM-43.575 7.503l-3.017 3.017-3.016-3.017-1.981 1.981 3.016 3.017-3.016 3.015 1.981 1.983 3.017-3.016 3.015 3.016 1.98-1.983-3.013-3.015 3.015-3.017zM49.345 0h-4.276v5.5h-9v-5.5h-7v25h25v-20.275l-4.724-4.725zm2.723 23h-21v-11.976h21v11.976zM33.068 13.024h16.833v3h-16.833zM33.068 18.024h16.833v3h-16.833zM40.073 0h3v3.5h-3zM17.146 8.441l-5.637 5.637-2.522-2.729-2.395 2.213 4.825 5.222 8.035-8.036zM12.5 0c-6.893 0-12.5 5.608-12.5 12.5 0 6.894 5.607 12.5 12.5 12.5s12.5-5.606 12.5-12.5c0-6.892-5.607-12.5-12.5-12.5zm0 21.738c-5.094 0-9.238-4.144-9.238-9.238 0-5.094 4.144-9.238 9.238-9.238s9.238 4.144 9.238 9.238c0 5.095-4.144 9.238-9.238 9.238z"/></svg>