<?xml version="1.0" encoding="utf-8"?>
<!-- Generator: Adobe Illustrator 16.0.0, SVG Export Plug-In . SVG Version: 6.00 Build 0)  -->
<!DOCTYPE svg PUBLIC "-//W3C//DTD SVG 1.1//EN" "http://www.w3.org/Graphics/SVG/1.1/DTD/svg11.dtd">
<svg version="1.1" id="Layer_1" xmlns="http://www.w3.org/2000/svg" xmlns:xlink="http://www.w3.org/1999/xlink" x="0px" y="0px"
	 width="25px" height="25px" viewBox="0 0 25 25" enable-background="new 0 0 25 25" xml:space="preserve">
<g>
	<polygon points="-11.947,-23.384 -15.279,-25.629 -26.571,-9.136 -26.571,-5.489 -23.242,-6.89 	"/>
	<rect x="-26.571" y="-4.225" width="23.43" height="3.568"/>
</g>
<g>
	<path d="M12.5,0C5.608,0,0,5.607,0,12.501S5.608,25,12.5,25C19.393,25,25,19.395,25,12.501S19.393,0,12.5,0z M12.5,21.731
		c-5.089,0-9.231-4.141-9.231-9.23c0-5.091,4.142-9.231,9.231-9.231c5.09,0,9.231,4.141,9.231,9.231
		C21.731,17.591,17.59,21.731,12.5,21.731z"/>
	<polygon points="15.517,7.503 12.5,10.52 9.484,7.503 7.503,9.484 10.519,12.501 7.503,15.516 9.484,17.499 12.5,14.483 
		15.516,17.499 17.496,15.516 14.482,12.501 17.498,9.484 	"/>
</g>
<g>
	<path d="M58.117,14.524h-4.276v5.5h-9v-5.5h-7v25h25V19.249L58.117,14.524z M60.841,37.524h-21V25.549h21V37.524z"/>
	<g>
		<rect x="41.841" y="27.549" width="16.833" height="3"/>
	</g>
	<g>
		<rect x="41.841" y="32.549" width="16.833" height="3"/>
	</g>
	<g>
		<rect x="48.846" y="14.524" width="3" height="3.5"/>
	</g>
</g>
<g>
	<polygon points="39.576,-25.377 33.939,-19.74 31.418,-22.469 29.022,-20.256 33.848,-15.034 41.883,-23.07 	"/>
	<path d="M34.931-33.817c-6.893,0-12.5,5.607-12.5,12.5c0,6.893,5.607,12.5,12.5,12.5s12.5-5.606,12.5-12.5
		C47.431-28.21,41.823-33.817,34.931-33.817z M34.931-12.08c-5.094,0-9.237-4.144-9.237-9.238c0-5.094,4.144-9.238,9.237-9.238
		s9.238,4.144,9.238,9.238C44.169-16.223,40.024-12.08,34.931-12.08z"/>
</g>
</svg>
