<?xml version="1.0" encoding="utf-8"?>
<!-- Generator: Adobe Illustrator 16.0.0, SVG Export Plug-In . SVG Version: 6.00 Build 0)  -->
<!DOCTYPE svg PUBLIC "-//W3C//DTD SVG 1.1//EN" "http://www.w3.org/Graphics/SVG/1.1/DTD/svg11.dtd">
<svg version="1.1" id="Layer_1" xmlns="http://www.w3.org/2000/svg" xmlns:xlink="http://www.w3.org/1999/xlink" x="0px" y="0px"
	 width="25px" height="25px" viewBox="0 0 25 25" enable-background="new 0 0 25 25" xml:space="preserve">
<g>
	<polygon points="-10.424,2.259 -13.756,0.014 -25.048,16.507 -25.048,20.154 -21.719,18.753 	"/>
	<rect x="-25.048" y="21.418" width="23.43" height="3.568"/>
</g>
<g>
	<path d="M-46.592,0c-6.892,0-12.5,5.607-12.5,12.501S-53.484,25-46.592,25c6.893,0,12.5-5.605,12.5-12.499S-39.699,0-46.592,0z
		 M-46.592,21.731c-5.089,0-9.231-4.141-9.231-9.23c0-5.091,4.142-9.231,9.231-9.231c5.09,0,9.231,4.141,9.231,9.231
		C-37.36,17.591-41.502,21.731-46.592,21.731z"/>
	<polygon points="-43.575,7.503 -46.592,10.52 -49.608,7.503 -51.589,9.484 -48.573,12.501 -51.589,15.516 -49.608,17.499 
		-46.591,14.483 -43.576,17.499 -41.596,15.516 -44.609,12.501 -41.594,9.484 	"/>
</g>
<g>
	<path d="M20.276,0H16v5.5H7V0H0v25h25V4.725L20.276,0z M23,23H2V11.024h21V23z"/>
	<g>
		<rect x="4" y="13.024" width="16.833" height="3"/>
	</g>
	<g>
		<rect x="4" y="18.024" width="16.833" height="3"/>
	</g>
	<g>
		<rect x="11.005" width="3" height="3.5"/>
	</g>
</g>
<g>
	<polygon points="39.576,-25.377 33.939,-19.74 31.418,-22.469 29.022,-20.256 33.848,-15.034 41.883,-23.07 	"/>
	<path d="M34.931-33.817c-6.893,0-12.5,5.607-12.5,12.5c0,6.893,5.607,12.5,12.5,12.5s12.5-5.606,12.5-12.5
		C47.431-28.21,41.823-33.817,34.931-33.817z M34.931-12.08c-5.094,0-9.237-4.144-9.237-9.238c0-5.094,4.144-9.238,9.237-9.238
		s9.238,4.144,9.238,9.238C44.169-16.223,40.024-12.08,34.931-12.08z"/>
</g>
</svg>
